<svg xmlns="http://www.w3.org/2000/svg" width="32.878" height="36.7" viewBox="0 0 32.878 36.7">
  <path id="iconfinder_00-ELASTOFONT-STORE-READY_bag_2703085" d="M33.5,10.382a1.147,1.147,0,0,0-1.145-1.075h-6.07V7.514C26.281,3.922,22.874,1,18.689,1S11.1,3.922,11.1,7.514V9.307H5.026a1.147,1.147,0,0,0-1.145,1.075l-1.629,26.1A1.147,1.147,0,0,0,3.4,37.7H33.98a1.147,1.147,0,0,0,1.145-1.219ZM13.39,7.514c0-2.327,2.377-4.22,5.3-4.22s5.3,1.894,5.3,4.22V9.307H13.39ZM11.1,11.6v2.491a1.147,1.147,0,0,0,2.294,0V11.6h10.6v2.491a1.147,1.147,0,0,0,2.294,0V11.6h4.992l.994,15.9H5.111L6.1,11.6Zm-6.48,23.8.4-6.372H32.362l.4,6.372Z" transform="translate(-2.25 -1)" fill="#fff"/>
</svg>
