<svg xmlns="http://www.w3.org/2000/svg" width="23" height="23" viewBox="0 0 23 23">
  <g id="iconfinder_Configuration-2-01_1976057" transform="translate(-0.5 -0.5)">
    <path id="Path_86" data-name="Path 86" d="M22.279,9.118l-1.653-.191A7.874,7.874,0,0,0,20.3,7.872l1.244-1.459a1.838,1.838,0,0,0-.1-2.471L20.42,2.9a1.829,1.829,0,0,0-2.464-.125L16.5,3.968a8.651,8.651,0,0,0-1.053-.437l-.19-1.623A1.642,1.642,0,0,0,13.422.5H11.954a1.642,1.642,0,0,0-1.836,1.409L9.927,3.656a8,8,0,0,0-1.055.375L7.413,2.81a1.838,1.838,0,0,0-2.471.11L3.9,3.95a1.835,1.835,0,0,0-.125,2.467L4.968,7.874a8.358,8.358,0,0,0-.437,1.054l-2.123.19A2.076,2.076,0,0,0,.5,10.953v1.468a2.077,2.077,0,0,0,1.909,1.836l2,.191a9.1,9.1,0,0,0,.5,1.055L3.748,16.962a1.841,1.841,0,0,0,.141,2.471l1.046,1.038A1.845,1.845,0,0,0,7.41,20.6l1.46-1.189a8.7,8.7,0,0,0,1.056.437l.191,1.935A1.9,1.9,0,0,0,11.953,23.5h1.468a1.9,1.9,0,0,0,1.836-1.721l.191-1.9a8.7,8.7,0,0,0,1.055-.453L17.962,20.6a1.84,1.84,0,0,0,2.471-.129l1.038-1.04a1.841,1.841,0,0,0,.125-2.472L20.407,15.5a8.68,8.68,0,0,0,.437-1.055l1.435-.191c.945-.1,1.221-.886,1.221-1.836V10.954C23.5,10,23.224,9.214,22.279,9.118Zm.221,3.3c0,.317.085.58-.23.612l-2.116.232a.484.484,0,0,0-.38.289c-.035.056-.019.116-.034.179a7.251,7.251,0,0,1-.622,1.541.616.616,0,0,0,.069.691l1.452,1.775a.614.614,0,0,1-.039.824L19.563,19.6a.613.613,0,0,1-.823.042L16.966,18.2a.614.614,0,0,0-.549-.116.621.621,0,0,0-.161.069,7.285,7.285,0,0,1-1.542.634.615.615,0,0,0-.447.53l-.232,2.455c-.032.315-.3.731-.612.731H11.955c-.317,0-.58-.415-.612-.73l-.232-2.366a.7.7,0,0,0-.289-.5.664.664,0,0,0-.179-.1A7.369,7.369,0,0,1,9.1,18.15a.613.613,0,0,0-.691.053L6.636,19.647a.613.613,0,0,1-.824-.043L4.774,18.565a.614.614,0,0,1-.042-.824l1.447-1.775a.615.615,0,0,0,.116-.55.621.621,0,0,0-.069-.161,7.285,7.285,0,0,1-.634-1.542.615.615,0,0,0-.53-.447L2.42,13.034c-.317-.032-.92-.3-.92-.612V10.954c0-.317.6-.58.918-.612l2.46-.232a.8.8,0,0,0,.552-.287c.038-.061.11-.126.124-.195A7.357,7.357,0,0,1,6.215,8.1a.613.613,0,0,0-.047-.691L4.727,5.636a.614.614,0,0,1,.045-.824L5.811,3.774a.614.614,0,0,1,.824-.042L8.41,5.179a.613.613,0,0,0,.55.116.621.621,0,0,0,.161-.069,7.285,7.285,0,0,1,1.542-.634.615.615,0,0,0,.447-.53l.232-2.142c.031-.317.3-.42.611-.42h1.468c.317,0,.58.1.612.418l.232,2.21a.555.555,0,0,0,.289.426.561.561,0,0,0,.179.058,7.275,7.275,0,0,1,1.541.634.615.615,0,0,0,.691-.063L18.74,3.734a.614.614,0,0,1,.824.041L20.6,4.813a.614.614,0,0,1,.042.824L19.2,7.411a.619.619,0,0,0-.047.711,7.285,7.285,0,0,1,.634,1.542.615.615,0,0,0,.53.447l1.955.232c.315.032.231.3.231.612v1.467Z"/>
    <path id="Path_87" data-name="Path 87" d="M12.688,7.382a4.306,4.306,0,1,0,4.306,4.306A4.311,4.311,0,0,0,12.688,7.382Zm0,7.381a3.076,3.076,0,1,1,3.076-3.076A3.08,3.08,0,0,1,12.688,14.763Z"/>
  </g>
</svg>
