<svg xmlns="http://www.w3.org/2000/svg" width="221.89" height="53" viewBox="0 0 221.89 53">
  <g id="animatedLogo" transform="translate(90 220)">
    <path id="letter5" d="M5.2,41.609H-1.44l12.479-28h6.4l12.52,28h-6.8l-2.48-6-2.054-4.919h.015L14.2,19.968,9.76,30.688h.021l-2.1,4.919-2.485,6Z" transform="translate(73 -218)"/>
    <path id="letter2" d="M6.953,43H3.672V28.125H6.953v-.008h4.453a6.782,6.782,0,0,0,2.275-.371,5.286,5.286,0,0,0,1.806-1.065,4.842,4.842,0,0,0,1.192-1.7,5.718,5.718,0,0,0,.429-2.255,4.411,4.411,0,0,0-1.454-3.506,6.281,6.281,0,0,0-4.209-1.259H6.953v.011H3.673v-2.98h8.359a11.966,11.966,0,0,1,3.389.459,7.608,7.608,0,0,1,2.7,1.4A6.521,6.521,0,0,1,19.9,19.182a7.778,7.778,0,0,1,.644,3.272,7.924,7.924,0,0,1-.439,2.686,7.066,7.066,0,0,1-1.25,2.178A7.659,7.659,0,0,1,16.9,28.948a10.039,10.039,0,0,1-2.569,1.045v.077a5.928,5.928,0,0,1,1.22.714,6.687,6.687,0,0,1,.986.947,12.687,12.687,0,0,1,.928,1.24c.306.463.651,1.005,1.025,1.611L23.749,43l-3.905,0-4.688-7.852a17.131,17.131,0,0,0-1.25-1.866,7.108,7.108,0,0,0-1.24-1.259A4.318,4.318,0,0,0,11.3,31.31a5.656,5.656,0,0,0-1.651-.224H6.953V43Z" transform="translate(-33 -219)"/>
    <text id="letter3" transform="translate(4 -177)" font-size="40" font-family="SegoeUIEmoji, Segoe UI Emoji" letter-spacing="0.152em"><tspan x="0" y="0">S</tspan></text>
    <g id="letter4" transform="translate(291.344 -31.008)">
      <line id="Line_84" data-name="Line 84" y2="26.008" transform="translate(-242.844 -170.5)" fill="none" stroke="#000" stroke-width="3"/>
      <line id="Line_85" data-name="Line 85" x1="21" transform="translate(-253.344 -172.992)" fill="none" stroke="#000" stroke-width="3"/>
    </g>
    <path id="letter6" d="M6.953,43H3.672V27.652h3.3l10.1,0V30.6H6.953V43ZM17.89,17.962H6.969v-.008h-3.3V14.992H17.89v2.969Z" transform="translate(114 -219)"/>
    <g id="letter1" transform="translate(41)">
      <rect id="Rectangle_225" data-name="Rectangle 225" width="47" height="47" transform="translate(-131 -217)" fill="#f3f3f3"/>
      <path id="Subtraction_1" data-name="Subtraction 1" d="M8.007,49H-.459L15.453,13.3h8.16L39.575,49H30.906l-3.158-7.64h.018l-2.6-6.281H13.81L11.176,41.35h-.007L8.007,49ZM19.482,21.409,13.821,35.077H25.143L19.482,21.409Z" transform="translate(-127 -225)"/>
    </g>
  </g>
</svg>
